HIERARCHY
ROOT Hips
{
  OFFSET 6.043 25.294 -245.689
  CHANNELS 6 Xposition Yposition Zposition Zrotation Xrotation Yrotation
  JOINT LeftUpLeg
  {
    OFFSET 6.150 -6.010 2.088
    CHANNELS 6 Xposition Yposition Zposition Zrotation Xrotation Yrotation
    JOINT LeftLeg
    {
      OFFSET -0.000 -48.604 0.000
      CHANNELS 6 Xposition Yposition Zposition Zrotation Xrotation Yrotation
      JOINT LeftFoot
      {
        OFFSET 0.000 -41.763 -0.000
        CHANNELS 6 Xposition Yposition Zposition Zrotation Xrotation Yrotation
        End Site
        {
          OFFSET 0.000 -6.886 3.976
        }
      }
    }
  }
  JOINT RightUpLeg
  {
    OFFSET -5.941 -5.845 1.156
    CHANNELS 6 Xposition Yposition Zposition Zrotation Xrotation Yrotation
    JOINT RightLeg
    {
      OFFSET 0.000 -49.585 0.000
      CHANNELS 6 Xposition Yposition Zposition Zrotation Xrotation Yrotation
      JOINT RightFoot
      {
        OFFSET 0.000 -40.924 -0.000
        CHANNELS 6 Xposition Yposition Zposition Zrotation Xrotation Yrotation
        End Site
        {
          OFFSET 0.000 -7.483 4.320
        }
      }
    }
  }
  JOINT Spine
  {
    OFFSET 0.000 6.132 -6.132
    CHANNELS 6 Xposition Yposition Zposition Zrotation Xrotation Yrotation
    JOINT LeftShoulder
    {
      OFFSET -0.000 43.800 0.000
      CHANNELS 6 Xposition Yposition Zposition Zrotation Xrotation Yrotation
      JOINT LeftArm
      {
        OFFSET 22.462 0.000 -0.000
        CHANNELS 6 Xposition Yposition Zposition Zrotation Xrotation Yrotation
        JOINT LeftForeArm
        {
          OFFSET 22.583 0.000 0.000
          CHANNELS 6 Xposition Yposition Zposition Zrotation Xrotation Yrotation
          JOINT LeftHand
          {
            OFFSET 25.058 0.000 -0.000
            CHANNELS 6 Xposition Yposition Zposition Zrotation Xrotation Yrotation
            JOINT LeftHandThumb1
            {
            OFFSET 4.970 -0.620 3.390
            CHANNELS 6 Xposition Yposition Zposition Zrotation Xrotation Yrotation
              JOINT LeftHandThumb2
              {
              OFFSET 2.150 -0.000 0.000
              CHANNELS 6 Xposition Yposition Zposition Zrotation Xrotation Yrotation
                JOINT LeftHandThumb3
                {
                OFFSET 2.200 -0.000 0.000
                CHANNELS 6 Xposition Yposition Zposition Zrotation Xrotation Yrotation
                  JOINT LeftHandThumb4
                  {
                  OFFSET 1.700 -0.000 0.000
                  CHANNELS 6 Xposition Yposition Zposition Zrotation Xrotation Yrotation
                  }
                }
              }
            }
            JOINT LeftHandIndex1
            {
            OFFSET 8.730 0.680 2.070
            CHANNELS 6 Xposition Yposition Zposition Zrotation Xrotation Yrotation
              JOINT LeftHandIndex2
              {
              OFFSET 2.670 -0.000 0.000
              CHANNELS 6 Xposition Yposition Zposition Zrotation Xrotation Yrotation
                JOINT LeftHandIndex3
                {
                OFFSET 2.130 -0.000 0.000
                CHANNELS 6 Xposition Yposition Zposition Zrotation Xrotation Yrotation
                  JOINT LeftHandIndex4
                  {
                  OFFSET 1.800 -0.000 0.000
                  CHANNELS 6 Xposition Yposition Zposition Zrotation Xrotation Yrotation
                  }
                }
              }
            }
            JOINT LeftHandMiddle1
            {
            OFFSET 9.220 0.670 0.550
            CHANNELS 6 Xposition Yposition Zposition Zrotation Xrotation Yrotation
              JOINT LeftHandMiddle2
              {
              OFFSET 2.660 -0.000 0.000
              CHANNELS 6 Xposition Yposition Zposition Zrotation Xrotation Yrotation
                JOINT LeftHandMiddle3
                {
                OFFSET 2.280 -0.000 0.000
                CHANNELS 6 Xposition Yposition Zposition Zrotation Xrotation Yrotation
                  JOINT LeftHandMiddle4
                  {
                  OFFSET 1.500 -0.000 0.000
                  CHANNELS 6 Xposition Yposition Zposition Zrotation Xrotation Yrotation
                  }
                }
              }
            }
            JOINT LeftHandRing1
            {
            OFFSET 9.250 0.670 -1.130
            CHANNELS 6 Xposition Yposition Zposition Zrotation Xrotation Yrotation
              JOINT LeftHandRing2
              {
              OFFSET 2.470 -0.000 0.000
              CHANNELS 6 Xposition Yposition Zposition Zrotation Xrotation Yrotation
                JOINT LeftHandRing3
                {
                OFFSET 2.210 -0.000 0.000
                CHANNELS 6 Xposition Yposition Zposition Zrotation Xrotation Yrotation
                  JOINT LeftHandRing4
                  {
                  OFFSET 1.800 -0.000 0.000
                  CHANNELS 6 Xposition Yposition Zposition Zrotation Xrotation Yrotation
                  }
                }
              }
            }
            JOINT LeftHandPinky1
            {
            OFFSET 9.350 0.660 -2.720
            CHANNELS 6 Xposition Yposition Zposition Zrotation Xrotation Yrotation
              JOINT LeftHandPinky2
              {
              OFFSET 1.630 -0.000 0.000
              CHANNELS 6 Xposition Yposition Zposition Zrotation Xrotation Yrotation
                JOINT LeftHandPinky3
                {
                OFFSET 1.710 -0.000 0.000
                CHANNELS 6 Xposition Yposition Zposition Zrotation Xrotation Yrotation
                  JOINT LeftHandPinky4
                  {
                  OFFSET 1.800 -0.000 0.000
                  CHANNELS 6 Xposition Yposition Zposition Zrotation Xrotation Yrotation
                  }
                }
              }
            }
          }
        }
      }
    }
    JOINT RightShoulder
    {
      OFFSET -0.000 43.800 0.000
      CHANNELS 6 Xposition Yposition Zposition Zrotation Xrotation Yrotation
      JOINT RightArm
      {
        OFFSET -19.789 0.000 -0.000
        CHANNELS 6 Xposition Yposition Zposition Zrotation Xrotation Yrotation
        JOINT RightForeArm
        {
          OFFSET -24.771 -0.000 0.000
          CHANNELS 6 Xposition Yposition Zposition Zrotation Xrotation Yrotation
          JOINT RightHand
          {
            OFFSET -24.975 0.000 -0.000
            CHANNELS 6 Xposition Yposition Zposition Zrotation Xrotation Yrotation
            JOINT RightHandThumb1
            {
            OFFSET -4.970 -0.620 3.390
            CHANNELS 6 Xposition Yposition Zposition Zrotation Xrotation Yrotation
              JOINT RightHandThumb2
              {
              OFFSET -2.150 0.000 0.000
              CHANNELS 6 Xposition Yposition Zposition Zrotation Xrotation Yrotation
                JOINT RightHandThumb3
                {
                OFFSET -2.200 0.000 0.000
                CHANNELS 6 Xposition Yposition Zposition Zrotation Xrotation Yrotation
                  JOINT RightHandThumb4
                  {
                  OFFSET -1.700 0.000 0.000
                  CHANNELS 6 Xposition Yposition Zposition Zrotation Xrotation Yrotation
                  }
                }
              }
            }
            JOINT RightHandIndex1
            {
            OFFSET -8.730 0.680 2.070
            CHANNELS 6 Xposition Yposition Zposition Zrotation Xrotation Yrotation
              JOINT RightHandIndex2
              {
              OFFSET -2.670 0.000 0.000
              CHANNELS 6 Xposition Yposition Zposition Zrotation Xrotation Yrotation
                JOINT RightHandIndex3
                {
                OFFSET -2.130 0.000 0.000
                CHANNELS 6 Xposition Yposition Zposition Zrotation Xrotation Yrotation
                  JOINT RightHandIndex4
                  {
                  OFFSET -1.800 0.000 0.000
                  CHANNELS 6 Xposition Yposition Zposition Zrotation Xrotation Yrotation
                  }
                }
              }
            }
            JOINT RightHandMiddle1
            {
            OFFSET -9.220 0.670 0.550
            CHANNELS 6 Xposition Yposition Zposition Zrotation Xrotation Yrotation
              JOINT RightHandMiddle2
              {
              OFFSET -2.660 0.000 0.000
              CHANNELS 6 Xposition Yposition Zposition Zrotation Xrotation Yrotation
                JOINT RightHandMiddle3
                {
                OFFSET -2.280 0.000 0.000
                CHANNELS 6 Xposition Yposition Zposition Zrotation Xrotation Yrotation
                  JOINT RightHandMiddle4
                  {
                  OFFSET -1.500 0.000 0.000
                  CHANNELS 6 Xposition Yposition Zposition Zrotation Xrotation Yrotation
                  }
                }
              }
            }
            JOINT RightHandRing1
            {
            OFFSET -9.250 0.670 -1.130
            CHANNELS 6 Xposition Yposition Zposition Zrotation Xrotation Yrotation
              JOINT RightHandRing2
              {
              OFFSET -2.470 0.000 0.000
              CHANNELS 6 Xposition Yposition Zposition Zrotation Xrotation Yrotation
                JOINT RightHandRing3
                {
                OFFSET -2.210 0.000 0.000
                CHANNELS 6 Xposition Yposition Zposition Zrotation Xrotation Yrotation
                  JOINT RightHandRing4
                  {
                  OFFSET -1.800 0.000 0.000
                  CHANNELS 6 Xposition Yposition Zposition Zrotation Xrotation Yrotation
                  }
                }
              }
            }
            JOINT RightHandPinky1
            {
            OFFSET -9.350 0.660 -2.720
            CHANNELS 6 Xposition Yposition Zposition Zrotation Xrotation Yrotation
              JOINT RightHandPinky2
              {
              OFFSET -1.630 0.000 0.000
              CHANNELS 6 Xposition Yposition Zposition Zrotation Xrotation Yrotation
                JOINT RightHandPinky3
                {
                OFFSET -1.710 0.000 0.000
                CHANNELS 6 Xposition Yposition Zposition Zrotation Xrotation Yrotation
                  JOINT RightHandPinky4
                  {
                  OFFSET -1.800 0.000 0.000
                  CHANNELS 6 Xposition Yposition Zposition Zrotation Xrotation Yrotation
                  }
                }
              }
            }
          }
        }
      }
    }
    JOINT Neck
    {
      OFFSET -0.000 43.800 0.000
      CHANNELS 6 Xposition Yposition Zposition Zrotation Xrotation Yrotation
      JOINT Head
      {
        OFFSET -0.000 12.071 -0.000
        CHANNELS 6 Xposition Yposition Zposition Zrotation Xrotation Yrotation
        End Site
        {
          OFFSET -0.000 0.048 -0.000
        }
      }
    }
  }
}
MOTION
Frames:	6
Frame Time:	0.0333333
20.9902 28.8082 -238.879 -2.33298 6.52346 9.73913 5.95901 -6.10145 3.42753 0.0793955 2.88485 -17.444 -7.45058e-07 -56.719 -2.38419e-05 7.03301 -10.3721 1.27241 4.47035e-06 -37.0026 4.76837e-05 8.27614 -7.60741 5.97101 -6.05072 -6.33144 -0.361896 2.45234 -3.14699 -17.4209 7.45058e-06 -47.2945 0 4.17796 -2.39176 0.174665 5.96046e-06 -43.9261 -2.38419e-05 12.5096 0.531451 7.31703 0 6.28794 -6.28793 0.0710569 -5.14666 -0.347788 5.96046e-06 43.801 0 -40.8776 1.06722e-05 -0.622045 22.5866 -1.19209e-05 0 -26.7936 27.8555 -9.32642 23.6555 -5.96046e-06 2.38419e-05 1.16061e-05 -9.35137e-06 -114.779 26.83 -2.98023e-06 1.19209e-05 74.5426 -1.85876 20.2507 0.0062 0.0497 0.0339 0 0 0 0 0.0215 0 0 0 0 0 0.022 0 0 0 0 0 0.017 0 0 0 0 -0.0068 0.0873 0.0207 0 0 0 0 0.0267 0 0 0 0 0 0.0213 0 0 0 0 0 0.018 0 0 0 0 -0.0067 0.0922 0.0055 0 0 0 0 0.0266 0 0 0 0 0 0.0228 0 0 0 0 0 0.015 0 0 0 0 -0.0067 0.0925 -0.0113 0 0 0 0 0.0247 0 0 0 0 0 0.0221 0 0 0 0 0 0.018 0 0 0 0 -0.0066 0.0935 -0.0272 0 0 0 0 0.0163 0 0 0 0 0 0.0171 0 0 0 0 0 0.018 0 0 0 0 5.96046e-06 43.801 0 52.0243 -5.12264e-06 0.761882 -18.441 5.7742e-06 2.38419e-05 27.0865 0.664634 -17.4348 -26.6832 2.98023e-06 2.38419e-05 1.39689e-06 1.70755e-06 36.0668 -27.8918 -2.98023e-06 0 -5.37624 -0.0112271 -1.46867 -0.0062 0.0497 0.0339 0 0 0 0 0.0215 0 0 0 0 0 0.022 0 0 0 0 0 0.017 0 0 0 0 0.0068 0.0873 0.0207 0 0 0 0 0.0267 0 0 0 0 0 0.0213 0 0 0 0 0 0.018 0 0 0 0 0.0067 0.0922 0.0055 0 0 0 0 0.0266 0 0 0 0 0 0.0228 0 0 0 0 0 0.015 0 0 0 0 0.0067 0.0925 -0.0113 0 0 0 0 0.0247 0 0 0 0 0 0.0221 0 0 0 0 0 0.018 0 0 0 0 0.0066 0.0935 -0.0272 0 0 0 0 0.0163 0 0 0 0 0 0.0171 0 0 0 0 0 0.018 0 0 0 0 5.96046e-06 43.801 0 -2.91671 3.88407 0.197743 -5.96046e-06 13.1742 4.76837e-05 9.55159e-06 -1.06722e-05 8.53774e-07 
20.9902 28.8082 -238.879 -2.33298 6.52346 9.73913 5.95901 -6.10145 3.42753 0.0793955 2.88485 -17.444 -7.45058e-07 -56.719 -2.38419e-05 7.03301 -10.3721 1.27241 4.47035e-06 -37.0026 4.76837e-05 8.27614 -7.60741 5.97101 -6.05072 -6.33144 -0.361896 2.45234 -3.14699 -17.4209 7.45058e-06 -47.2945 0 4.17796 -2.39176 0.174665 5.96046e-06 -43.9261 -2.38419e-05 12.5096 0.531451 7.31703 0 6.28794 -6.28793 0.0710569 -5.14666 -0.347788 5.96046e-06 43.801 0 -40.8776 1.06722e-05 -0.622045 22.5866 -1.19209e-05 0 -26.7936 27.8555 -9.32642 23.6555 -5.96046e-06 2.38419e-05 1.16061e-05 -9.35137e-06 -114.779 26.83 -2.98023e-06 1.19209e-05 74.5426 -1.85876 20.2507 0.0062 0.0497 0.0339 0 0 0 0 0.0215 0 0 0 0 0 0.022 0 0 0 0 0 0.017 0 0 0 0 -0.0068 0.0873 0.0207 0 0 0 0 0.0267 0 0 0 0 0 0.0213 0 0 0 0 0 0.018 0 0 0 0 -0.0067 0.0922 0.0055 0 0 0 0 0.0266 0 0 0 0 0 0.0228 0 0 0 0 0 0.015 0 0 0 0 -0.0067 0.0925 -0.0113 0 0 0 0 0.0247 0 0 0 0 0 0.0221 0 0 0 0 0 0.018 0 0 0 0 -0.0066 0.0935 -0.0272 0 0 0 0 0.0163 0 0 0 0 0 0.0171 0 0 0 0 0 0.018 0 0 0 0 5.96046e-06 43.801 0 52.0243 -5.12264e-06 0.761882 -18.441 5.7742e-06 2.38419e-05 27.0865 0.664634 -17.4348 -26.6832 2.98023e-06 2.38419e-05 1.39689e-06 1.70755e-06 36.0668 -27.8918 -2.98023e-06 0 -5.37624 -0.0112271 -1.46867 -0.0062 0.0497 0.0339 0 0 0 0 0.0215 0 0 0 0 0 0.022 0 0 0 0 0 0.017 0 0 0 0 0.0068 0.0873 0.0207 0 0 0 0 0.0267 0 0 0 0 0 0.0213 0 0 0 0 0 0.018 0 0 0 0 0.0067 0.0922 0.0055 0 0 0 0 0.0266 0 0 0 0 0 0.0228 0 0 0 0 0 0.015 0 0 0 0 0.0067 0.0925 -0.0113 0 0 0 0 0.0247 0 0 0 0 0 0.0221 0 0 0 0 0 0.018 0 0 0 0 0.0066 0.0935 -0.0272 0 0 0 0 0.0163 0 0 0 0 0 0.0171 0 0 0 0 0 0.018 0 0 0 0 5.96046e-06 43.801 0 -2.91671 3.88407 0.197743 -5.96046e-06 13.1742 4.76837e-05 9.55159e-06 -1.06722e-05 8.53774e-07 
21.0237 28.835 -238.854 -2.32738 6.50681 9.75509 5.96799 -6.10744 3.42548 0.252544 2.90202 -17.4206 -1.11759e-05 -56.6644 -2.38419e-05 6.53777 -10.4738 1.19349 1.49012e-06 -37.0309 -2.38419e-05 8.04722 -7.67807 5.79175 -6.06741 -6.33284 -0.364804 2.89997 -3.75507 -17.3418 -4.47035e-06 -47.0687 -9.53674e-05 2.69665 -1.47301 0.0693698 5.96046e-06 -44.2495 2.38419e-05 13.0284 0.218988 7.67513 0 6.28643 -6.28636 -0.0409757 -5.07369 -0.352557 0 43.801 0 -40.9866 1.19528e-05 -0.653329 22.5687 -1.78814e-05 2.38419e-05 -26.6356 27.9051 -9.41278 23.7727 2.08616e-05 0 2.52286e-05 -9.43306e-06 -115.01 26.8036 0 -1.19209e-05 39.933 -2.14859 11.2579 0.0062 0.0497 0.0339 0 0 0 0 0.0215 0 0 0 0 0 0.022 0 0 0 0 0 0.017 0 0 0 0 -0.0068 0.0873 0.0207 0 0 0 0 0.0267 0 0 0 0 0 0.0213 0 0 0 0 0 0.018 0 0 0 0 -0.0067 0.0922 0.0055 0 0 0 0 0.0266 0 0 0 0 0 0.0228 0 0 0 0 0 0.015 0 0 0 0 -0.0067 0.0925 -0.0113 0 0 0 0 0.0247 0 0 0 0 0 0.0221 0 0 0 0 0 0.018 0 0 0 0 -0.0066 0.0935 -0.0272 0 0 0 0 0.0163 0 0 0 0 0 0.0171 0 0 0 0 0 0.018 0 0 0 0 0 43.801 0 51.984 -5.97641e-06 0.794779 -18.5521 2.42144e-06 -4.76837e-05 27.2444 0.5612 -17.5236 -26.689 -5.96046e-06 0 4.0422e-06 1.70755e-06 36.2859 -27.9334 8.9407e-06 2.38419e-05 -5.55997 -0.010232 -1.30203 -0.0062 0.0497 0.0339 0 0 0 0 0.0215 0 0 0 0 0 0.022 0 0 0 0 0 0.017 0 0 0 0 0.0068 0.0873 0.0207 0 0 0 0 0.0267 0 0 0 0 0 0.0213 0 0 0 0 0 0.018 0 0 0 0 0.0067 0.0922 0.0055 0 0 0 0 0.0266 0 0 0 0 0 0.0228 0 0 0 0 0 0.015 0 0 0 0 0.0067 0.0925 -0.0113 0 0 0 0 0.0247 0 0 0 0 0 0.0221 0 0 0 0 0 0.018 0 0 0 0 0.0066 0.0935 -0.0272 0 0 0 0 0.0163 0 0 0 0 0 0.0171 0 0 0 0 0 0.018 0 0 0 0 0 43.801 0 -2.46853 3.54898 0.1529 -5.96046e-06 13.1338 2.38419e-05 1.07255e-05 -9.39151e-06 8.53774e-07 
21.0237 28.835 -238.854 -2.32738 6.50681 9.75509 5.96799 -6.10744 3.42548 0.252544 2.90202 -17.4206 -1.11759e-05 -56.6644 -2.38419e-05 6.53777 -10.4738 1.19349 1.49012e-06 -37.0309 -2.38419e-05 8.04722 -7.67807 5.79175 -6.06741 -6.33284 -0.364804 2.89997 -3.75507 -17.3418 -4.47035e-06 -47.0687 -9.53674e-05 2.69665 -1.47301 0.0693698 5.96046e-06 -44.2495 2.38419e-05 13.0284 0.218988 7.67513 0 6.28643 -6.28636 -0.0409757 -5.07369 -0.352557 0 43.801 0 -40.9866 1.19528e-05 -0.653329 22.5687 -1.78814e-05 2.38419e-05 -26.6356 27.9051 -9.41278 23.7727 2.08616e-05 0 2.52286e-05 -9.43306e-06 -115.01 26.8036 0 -1.19209e-05 39.933 -2.14859 11.2579 0.0062 0.0497 0.0339 0 0 0 0 0.0215 0 0 0 0 0 0.022 0 0 0 0 0 0.017 0 0 0 0 -0.0068 0.0873 0.0207 0 0 0 0 0.0267 0 0 0 0 0 0.0213 0 0 0 0 0 0.018 0 0 0 0 -0.0067 0.0922 0.0055 0 0 0 0 0.0266 0 0 0 0 0 0.0228 0 0 0 0 0 0.015 0 0 0 0 -0.0067 0.0925 -0.0113 0 0 0 0 0.0247 0 0 0 0 0 0.0221 0 0 0 0 0 0.018 0 0 0 0 -0.0066 0.0935 -0.0272 0 0 0 0 0.0163 0 0 0 0 0 0.0171 0 0 0 0 0 0.018 0 0 0 0 0 43.801 0 51.984 -5.97641e-06 0.794779 -18.5521 2.42144e-06 -4.76837e-05 27.2444 0.5612 -17.5236 -26.689 -5.96046e-06 0 4.0422e-06 1.70755e-06 36.2859 -27.9334 8.9407e-06 2.38419e-05 -5.55997 -0.010232 -1.30203 -0.0062 0.0497 0.0339 0 0 0 0 0.0215 0 0 0 0 0 0.022 0 0 0 0 0 0.017 0 0 0 0 0.0068 0.0873 0.0207 0 0 0 0 0.0267 0 0 0 0 0 0.0213 0 0 0 0 0 0.018 0 0 0 0 0.0067 0.0922 0.0055 0 0 0 0 0.0266 0 0 0 0 0 0.0228 0 0 0 0 0 0.015 0 0 0 0 0.0067 0.0925 -0.0113 0 0 0 0 0.0247 0 0 0 0 0 0.0221 0 0 0 0 0 0.018 0 0 0 0 0.0066 0.0935 -0.0272 0 0 0 0 0.0163 0 0 0 0 0 0.0171 0 0 0 0 0 0.018 0 0 0 0 0 43.801 0 -2.46853 3.54898 0.1529 -5.96046e-06 13.1338 2.38419e-05 1.07255e-05 -9.39151e-06 8.53774e-07 
21.0642 28.8465 -238.823 -2.27259 6.48529 9.85474 5.96098 -6.11449 3.42546 0.173777 2.9406 -17.4339 -7.45058e-07 -56.7136 -2.38419e-05 6.58161 -10.4678 1.20088 7.45058e-07 -36.9658 0 7.82852 -7.69903 5.62541 -6.07247 -6.31142 -0.366783 3.0114 -3.98618 -17.3294 1.49012e-06 -47.0284 7.15256e-05 2.26894 -1.02931 0.0407786 2.98023e-06 -43.9695 -4.76837e-05 13.1487 0.300711 7.71694 -5.96046e-06 6.28552 -6.28552 -0.152377 -5.03434 -0.263873 0 43.801 -2.38419e-05 -41.0464 1.23797e-05 -0.807159 22.5624 -5.96046e-06 0 -26.6458 27.998 -9.33322 23.8568 -5.96046e-06 4.76837e-05 -2.06101e-06 -9.36601e-06 -114.821 26.6911 -2.98023e-06 0 35.4632 -1.49229 9.06874 0.0062 0.0497 0.0339 0 0 0 0 0.0215 0 0 0 0 0 0.022 0 0 0 0 0 0.017 0 0 0 0 -0.0068 0.0873 0.0207 0 0 0 0 0.0267 0 0 0 0 0 0.0213 0 0 0 0 0 0.018 0 0 0 0 -0.0067 0.0922 0.0055 0 0 0 0 0.0266 0 0 0 0 0 0.0228 0 0 0 0 0 0.015 0 0 0 0 -0.0067 0.0925 -0.0113 0 0 0 0 0.0247 0 0 0 0 0 0.0221 0 0 0 0 0 0.018 0 0 0 0 -0.0066 0.0935 -0.0272 0 0 0 0 0.0163 0 0 0 0 0 0.0171 0 0 0 0 0 0.018 0 0 0 0 0 43.801 -2.38419e-05 52.1926 -8.53773e-06 0.97591 -18.6611 -1.2666e-05 0 27.0433 0.342894 -18.0376 -26.6833 -2.98023e-06 4.76837e-05 4.37587e-06 3.41509e-06 36.7564 -27.9603 2.98023e-06 7.15256e-05 -5.62578 -0.00816627 -1.28239 -0.0062 0.0497 0.0339 0 0 0 0 0.0215 0 0 0 0 0 0.022 0 0 0 0 0 0.017 0 0 0 0 0.0068 0.0873 0.0207 0 0 0 0 0.0267 0 0 0 0 0 0.0213 0 0 0 0 0 0.018 0 0 0 0 0.0067 0.0922 0.0055 0 0 0 0 0.0266 0 0 0 0 0 0.0228 0 0 0 0 0 0.015 0 0 0 0 0.0067 0.0925 -0.0113 0 0 0 0 0.0247 0 0 0 0 0 0.0221 0 0 0 0 0 0.018 0 0 0 0 0.0066 0.0935 -0.0272 0 0 0 0 0.0163 0 0 0 0 0 0.0171 0 0 0 0 0 0.018 0 0 0 0 0 43.801 -2.38419e-05 -2.26611 3.44128 0.136094 5.96046e-06 13.1264 0 1.08323e-05 -1.02453e-05 -8.53774e-07 
21.1129 28.8585 -238.781 -2.25059 6.44609 9.98927 5.95624 -6.11717 3.43132 0.0731393 2.99056 -17.491 1.19209e-05 -56.7658 -2.38419e-05 6.71293 -10.45 1.22299 3.72529e-06 -36.9046 -2.38419e-05 7.75152 -7.59551 5.53964 -6.07111 -6.29892 -0.372744 3.17672 -4.20274 -17.3643 1.49012e-06 -47.0061 -4.76837e-05 1.65983 -0.589955 0.0170926 -1.04308e-05 -43.9907 0 13.3929 0.473984 7.80824 0 6.28704 -6.28703 -0.21848 -4.9971 -0.252417 0 43.801 2.38419e-05 -41.1203 9.39151e-06 -0.96297 22.5663 0 -7.15256e-05 -26.6864 28.1511 -9.30082 23.9411 5.96046e-06 -4.76837e-05 -2.84166e-06 3.63523e-06 -114.846 26.6769 -8.9407e-06 1.19209e-05 36.8477 -0.905976 8.71441 0.0062 0.0497 0.0339 0 0 0 0 0.0215 0 0 0 0 0 0.022 0 0 0 0 0 0.017 0 0 0 0 -0.0068 0.0873 0.0207 0 0 0 0 0.0267 0 0 0 0 0 0.0213 0 0 0 0 0 0.018 0 0 0 0 -0.0067 0.0922 0.0055 0 0 0 0 0.0266 0 0 0 0 0 0.0228 0 0 0 0 0 0.015 0 0 0 0 -0.0067 0.0925 -0.0113 0 0 0 0 0.0247 0 0 0 0 0 0.0221 0 0 0 0 0 0.018 0 0 0 0 -0.0066 0.0935 -0.0272 0 0 0 0 0.0163 0 0 0 0 0 0.0171 0 0 0 0 0 0.018 0 0 0 0 0 43.801 2.38419e-05 52.251 -4.26887e-06 1.16009 -18.7321 7.63685e-06 -2.38419e-05 27.0243 0.144325 -18.1488 -26.7 5.96046e-06 -4.76837e-05 -3.37205e-06 5.97641e-06 36.58 -27.986 8.9407e-06 2.38419e-05 -5.5055 -0.00531337 -1.30437 -0.0062 0.0497 0.0339 0 0 0 0 0.0215 0 0 0 0 0 0.022 0 0 0 0 0 0.017 0 0 0 0 0.0068 0.0873 0.0207 0 0 0 0 0.0267 0 0 0 0 0 0.0213 0 0 0 0 0 0.018 0 0 0 0 0.0067 0.0922 0.0055 0 0 0 0 0.0266 0 0 0 0 0 0.0228 0 0 0 0 0 0.015 0 0 0 0 0.0067 0.0925 -0.0113 0 0 0 0 0.0247 0 0 0 0 0 0.0221 0 0 0 0 0 0.018 0 0 0 0 0.0066 0.0935 -0.0272 0 0 0 0 0.0163 0 0 0 0 0 0.0171 0 0 0 0 0 0.018 0 0 0 0 0 43.801 2.38419e-05 -2.07239 3.44206 0.124481 5.96046e-06 13.1276 -7.15256e-05 1.00318e-05 -9.81839e-06 -8.53773e-07 
